# Blender v2.78 (sub 0) OBJ File: 'ScifiCornerTerminal.blend'
# www.blender.org
mtllib ScifiCornerTerminal.mtl
o Cube.008_Cube.006
v -1.398645 0.621369 -1.353059
v -1.171174 1.000000 -1.353059
v 2.143105 0.621369 1.413579
v 2.143105 1.000000 1.145861
v -0.692874 1.051647 -0.304096
v -0.801251 1.034424 -1.357705
v -0.763246 1.051647 -0.251189
v -0.281428 1.000000 1.272763
v -1.049870 1.000000 0.313650
v 0.632632 1.051647 0.922688
v 2.146768 1.034424 0.868307
v 0.177347 2.260338 1.292546
v -1.347048 2.681347 0.355263
v -0.240099 2.862146 1.471892
v -0.729115 1.034424 -0.321373
v 0.644131 1.034424 0.949596
v 0.370399 2.862146 1.184095
v -0.901690 2.681347 -0.062299
v 0.331819 0.621369 -1.323519
v 1.803404 0.621369 -0.064669
v 1.807068 0.780583 -0.069316
v 0.335483 0.780583 -1.328166
v 2.563985 1.000000 0.872954
v 2.563985 1.000000 1.145861
v 2.563985 2.337808 1.155310
v 2.563985 2.337808 1.413579
v -1.171174 1.000000 -1.802422
v -0.804915 1.000000 -1.802422
v -1.398645 2.337808 -1.802422
v -1.064128 2.337808 -1.802422
v 0.562260 1.051647 0.975596
v -1.014225 2.260338 -1.740121
v -1.398325 0.317385 -0.477340
v 2.422511 1.051647 0.901358
v 1.025092 0.317385 1.415712
v -0.764024 1.051647 -1.740121
v 1.025092 0.317385 0.384019
v 0.018171 0.317385 -0.477340
v -1.398325 -0.269618 -0.477340
v 2.081510 1.051647 0.842247
v 1.025092 -0.269618 1.415712
v 2.487759 1.051647 0.842247
v 2.487759 2.260338 1.114787
v 1.025092 -0.269618 0.384019
v 0.018171 -0.269618 -0.477340
v -1.398645 0.621369 0.812854
v -0.797927 0.621369 1.413579
v -0.797927 1.000000 1.145861
v -1.171174 1.000000 0.812854
v 0.247719 2.260338 1.239638
v -0.980146 2.260338 0.036574
v -0.797608 -0.269618 1.415712
v -1.398325 -0.269618 0.814988
v -1.050518 2.260338 0.089481
v 2.422511 2.260338 1.173898
v -0.829272 1.051647 -1.681010
v -1.079473 2.260338 -1.681010
v 0.307624 2.830490 1.130625
v -0.848113 2.666227 -0.001767
v -0.919393 2.283726 0.088062
v 0.196165 2.283726 1.181088
v 0.204243 2.795059 1.145582
v -0.863266 2.643336 0.099635
v -0.929106 2.290035 0.182607
v 0.101292 2.290035 1.192192
vt 0.6685 0.7892
vt 0.6727 0.6690
vt 0.7807 0.6690
vt 0.7765 0.7892
vt 0.8395 0.1224
vt 0.5509 0.3238
vt 0.8541 0.3421
vt 0.3890 0.7132
vt 0.4700 0.7150
vt 0.4755 0.5650
vt 0.3526 0.5626
vt 0.3434 0.8140
vt 0.9650 0.8843
vt 0.9449 0.8884
vt 0.9455 0.8555
vt 0.9464 0.7363
vt 0.9665 0.7322
vt 0.8902 0.4395
vt 0.9144 0.4638
vt 0.9134 0.4717
vt 0.8893 0.4482
vt 0.5921 0.8332
vt 0.5752 0.8706
vt 0.5668 0.8693
vt 0.5822 0.8353
vt 0.8699 0.2519
vt 0.8690 0.2606
vt 0.2619 0.1166
vt 0.2599 0.1153
vt 0.3985 0.0750
vt 0.4400 0.0747
vt 0.4869 0.0782
vt 0.0420 0.1514
vt 0.0432 0.0104
vt 0.1434 0.0099
vt 0.1423 0.1509
vt 0.9378 0.8080
vt 0.9449 0.8009
vt 0.9435 0.8386
vt 0.9380 0.8880
vt 0.2957 0.9719
vt 0.6118 0.9782
vt 0.5876 0.8939
vt 0.3038 0.9549
vt 0.9079 0.7009
vt 0.7961 0.5610
vt 0.8070 0.5596
vt 0.9188 0.6995
vt 0.5116 0.0554
vt 0.5179 0.2064
vt 0.3268 0.2077
vt 0.2377 0.1020
vt 0.6137 0.9786
vt 0.2955 0.9721
vt 0.3038 0.9545
vt 0.5880 0.8937
vt 0.3059 0.7444
vt 0.2605 0.9943
vt 0.0300 0.9943
vt 0.0273 0.9413
vt 0.0164 0.7490
vt 0.8467 0.4123
vt 0.8699 0.4122
vt 0.8907 0.6194
vt 0.8675 0.6195
vt 0.6279 -0.0044
vt 0.8808 -0.0024
vt 0.8718 0.0080
vt 0.6429 0.0060
vt 0.7055 0.5976
vt 0.7255 0.5678
vt 0.8217 0.6547
vt 0.8028 0.6830
vt 0.4545 0.0511
vt 0.4040 0.0514
vt 0.4030 0.0043
vt 0.4535 0.0039
vt 0.6968 0.5938
vt 0.7197 0.5632
vt 0.8307 0.6589
vt 0.8098 0.6869
vt 0.6466 0.6141
vt 0.5787 0.6112
vt 0.5829 0.5522
vt 0.6507 0.5550
vt 0.0233 0.7411
vt 0.0233 0.9565
vt 0.0233 0.9938
vt 0.2290 0.9933
vt 0.3094 0.7444
vt 0.8707 0.0160
vt 0.6419 0.0140
vt 0.1472 0.0077
vt 0.1554 0.1497
vt 0.0465 0.1478
vt 0.0383 0.0058
vt 0.1516 0.1519
vt 0.1433 0.0077
vt 0.0344 0.0058
vt 0.0427 0.1500
vt -0.0010 0.5256
vt 0.0045 0.2975
vt 0.1672 0.3415
vt 0.1672 0.5281
vt 0.6504 0.7509
vt 0.6586 0.5629
vt 0.6586 0.7522
vt 0.3844 0.0776
vt 0.2547 0.1046
vt 0.2485 0.0985
vt 0.4270 0.0385
vt 0.4222 0.0650
vt 0.1788 0.5353
vt 0.1788 0.3487
vt 0.3383 0.2149
vt 0.5295 0.2135
vt 0.5295 0.4537
vt 0.4182 0.5336
vt 0.8807 0.0531
vt 0.8789 0.2505
vt 0.8716 0.0616
vt 0.9000 0.4448
vt 0.5180 0.5353
vt 0.5180 0.6986
vt 0.5059 0.7005
vt 0.5059 0.5371
vt 0.7367 0.8396
vt 0.6753 0.8397
vt 0.0199 0.7207
vt 0.0091 0.5726
vt 0.3440 0.5353
vt 0.3242 0.7157
vt 0.3498 0.8257
vt 0.3498 0.5586
vt 0.4638 0.5586
vt 0.4638 0.7241
vt 0.3887 0.7241
vt 0.8465 0.8398
vt 0.8569 0.8377
vt 0.5063 0.4854
vt 0.5168 0.4833
vt 0.5284 0.5353
vt 0.5284 0.7151
vt 0.5209 0.7044
vt 0.5180 0.5415
vt 0.9355 0.7496
vt 0.9356 0.7193
vt 0.9668 0.7189
vt 0.9668 0.8923
vt 0.9356 0.8927
vt 0.6274 0.9198
vt 0.5299 0.6295
vt 0.5295 0.5480
vt 0.6270 0.9191
vt 0.7629 0.8950
vt 0.8273 0.7551
vt 0.8559 0.7239
vt 0.8016 0.8481
vt 0.3377 0.8342
vt 0.5795 0.8353
vt 0.3483 0.8363
vt 0.3101 0.8883
vt 0.3232 0.8854
vt 0.5641 0.8693
vt 0.7579 0.4447
vt 0.6874 0.0243
vt 0.5509 0.1113
vt 0.5798 0.8367
vt 0.3663 0.8376
vt 0.5059 0.5353
vt 0.5059 0.7493
vt 0.4898 0.7407
vt 0.4898 0.5431
vt 0.3431 0.8829
vt 0.4748 0.5369
vt 0.4611 0.5446
vt 0.3909 0.8576
vt 0.0067 0.8576
vt 0.0067 0.6364
vt 0.3800 0.6364
vt 0.6797 0.6364
vt 0.9656 0.6364
vt 0.9914 0.8576
vt 0.6646 0.8576
vt 0.6782 0.6364
vt 0.6651 0.8576
vt 0.3911 0.8576
vt 0.6571 0.9463
vt 0.3521 0.9766
vt 0.3603 0.8774
vt 0.6546 0.8777
vn -0.8908 0.2769 0.3601
vn -0.7172 -0.6301 0.2975
vn -0.2973 -0.6293 0.7180
vn -0.3461 0.2331 0.9088
vn 0.3361 0.5507 -0.7641
vn 0.2672 0.1781 -0.9470
vn 0.6992 0.5101 -0.5008
vn -0.5952 -0.4644 -0.6557
vn -0.5772 -0.5775 -0.5773
vn -0.6906 -0.2404 -0.6821
vn -0.5311 0.8048 0.2648
vn -0.8947 0.3922 0.2135
vn -0.8781 -0.2400 -0.4138
vn 0.6759 0.4845 -0.5553
vn 0.9802 -0.1950 -0.0342
vn 0.6552 0.6945 0.2972
vn 0.6211 0.7440 -0.2463
vn 0.4671 -0.8562 -0.2209
vn 0.5522 0.7366 -0.3905
vn 0.7597 -0.3807 -0.5271
vn 0.8458 -0.0990 -0.5242
vn 0.4613 0.4946 -0.7365
vn 0.1987 0.7449 -0.6368
vn 0.6853 -0.6028 -0.4086
vn 0.4581 -0.6121 -0.6445
vn 0.4619 -0.3757 0.8034
vn 0.6438 -0.3667 0.6715
vn 0.6578 -0.6817 -0.3203
vn 0.6598 -0.4837 0.5749
vn 0.5777 -0.5763 0.5780
vn 0.7098 -0.6240 -0.3269
vn -0.2452 0.8267 0.5064
vn -0.2157 0.2904 0.9322
vn 0.4509 0.4971 -0.7414
vn 0.9967 -0.0706 -0.0401
vn 0.2126 -0.8460 -0.4890
vn 0.3379 -0.4977 -0.7988
vn 0.7766 -0.5049 -0.3768
vn 0.3279 0.8158 -0.4764
vn 0.7396 0.5094 -0.4398
vn -0.0519 0.0080 -0.9986
vn -0.7810 0.5739 0.2461
vn -0.6764 0.4558 -0.5785
vn -0.5195 -0.6434 -0.5622
vn 0.2939 -0.5459 -0.7846
vn 0.5919 -0.6075 -0.5297
vn -0.0445 -0.0576 -0.9973
vn 0.5994 -0.6229 0.5026
vn 0.5781 0.4179 0.7008
vn 0.4085 -0.6692 -0.6207
vn 0.3898 -0.6674 -0.6344
vn -0.3165 0.6295 0.7095
vn -0.2797 0.7140 -0.6417
vn -0.3039 -0.5574 -0.7726
vn 0.2635 -0.6545 -0.7086
vn 0.2671 -0.6368 -0.7233
vn 0.9365 0.1389 -0.3219
vn -0.0479 0.2934 -0.9548
vn 0.7754 -0.5485 0.3127
vn 0.5191 -0.0463 -0.8534
vn 0.5823 -0.3341 -0.7411
vn 0.7991 0.5019 -0.3309
vn 0.3242 0.5174 -0.7919
vn 0.3048 -0.5712 -0.7620
vn 0.7818 -0.5665 -0.2604
usemtl Material
s 1
f 46/1/1 53/2/2 52/3/3 47/4/4
f 22/5/5 16/6/6 21/7/7
f 33/8/8 39/9/9 53/10/2 46/11/1 1/12/10
f 46/13/1 49/14/11 9/15/12 2/16/13 1/17/10
f 5/18/14 36/19/15 56/20/16 7/21/17
f 51/22/18 18/23/19 59/24/20 60/25/21
f 10/26/22 5/18/14 7/21/17 31/27/23
f 20/28/24 21/29/7 11/30/25 4/31/26 3/32/27
f 37/33/28 35/34/29 41/35/30 44/36/31
f 9/37/12 49/38/11 48/39/32 8/40/33
f 30/41/34 18/42/19 51/43/18 32/44/35
f 51/45/18 50/46/36 12/47/37 54/48/38
f 3/49/27 35/50/29 37/51/28 20/52/24
f 17/53/39 25/54/40 43/55/41 50/56/36
f 13/57/42 29/58/43 27/59/44 2/60/13 9/61/12
f 21/62/7 20/63/24 19/64/45 22/65/5
f 25/66/40 23/67/46 42/68/47 43/69/41
f 24/70/48 23/71/46 25/72/40 26/73/49
f 4/74/26 11/75/25 23/76/46 24/77/48
f 28/78/50 27/79/44 29/80/43 30/81/34
f 6/82/51 2/83/13 27/84/44 28/85/50
f 8/86/33 4/87/26 24/88/48 26/89/49 14/90/52
f 43/69/41 42/68/47 34/91/53 55/92/54
f 38/93/55 37/94/28 44/95/31 45/96/56
f 33/97/8 38/98/55 45/99/56 39/100/9
f 1/101/10 19/102/45 38/103/55 33/104/8
f 19/102/45 20/52/24 37/51/28 38/103/55
f 15/105/57 6/82/51 28/85/50 36/106/15 5/107/14
f 6/108/51 22/109/5 19/110/45 1/111/10 2/112/13
f 39/113/9 45/114/56 44/115/31 41/116/30 52/117/3 53/118/2
f 11/119/25 16/120/6 10/26/22 40/121/58
f 16/120/6 15/122/57 5/18/14 10/26/22
f 23/67/46 11/119/25 40/121/58 42/68/47
f 36/123/15 32/124/35 57/125/59 56/126/16
f 47/4/4 48/127/32 49/128/11 46/1/1
f 9/129/12 8/130/33 14/131/52 13/132/42
f 3/133/27 47/134/4 52/135/3 41/136/30 35/137/29
f 32/138/35 51/45/18 54/48/38 57/139/59
f 50/46/36 43/140/41 55/141/54 12/47/37
f 28/142/50 30/143/34 32/144/35 36/145/15
f 8/146/33 48/147/32 47/148/4 3/149/27 4/150/26
f 25/151/40 17/152/39 14/153/52 26/154/49
f 17/155/39 18/156/19 13/157/42 14/158/52
f 29/80/43 13/157/42 18/156/19 30/81/34
f 50/159/36 51/22/18 60/160/21 61/161/60
f 18/23/19 17/162/39 58/163/61 59/164/20
f 17/162/39 50/159/36 61/161/60 58/163/61
f 11/165/25 21/7/7 16/6/6
f 22/5/5 6/166/51 15/167/57
f 15/167/57 16/6/6 22/5/5
f 40/121/58 10/26/22 31/27/23 34/91/53 42/68/47
usemtl Material_ScifiCornerTerminal-Emit.png
f 61/161/60 60/160/21 64/168/62 65/169/63
f 59/170/20 58/171/61 62/172/64 63/173/65
f 58/163/61 61/161/60 65/169/63 62/174/64
f 60/175/21 59/170/20 63/173/65 64/176/62
usemtl Monitors
f 12/177/37 55/178/54 34/179/53 31/180/23
f 7/181/17 56/182/16 57/183/59 54/184/38
f 7/185/17 54/186/38 12/187/37 31/180/23
usemtl Monitors_Monitor
f 63/188/65 62/189/64 65/190/63 64/191/62
