# 3ds Max Wavefront OBJ Exporter v0.97b - (c)2007 guruware
# File Created: 07.09.2015 05:51:24

mtllib 3d-model.mtl

#
# object box2_001
#

v  -1511.2518 0.0000 2708.0161
v  -1807.0375 0.0000 2707.1641
v  -1804.7657 0.0000 1963.7681
v  -1508.9801 0.0000 1964.6200
v  -1804.7657 398.0882 1963.7681
v  -1807.0375 398.0882 2707.1641
v  -1511.2518 398.0882 2708.0161
v  -1508.9801 398.0882 1964.6200
# 8 vertices

vn 0.0000 -1.0000 -0.0000
vn 0.0000 1.0000 -0.0000
vn -0.0031 0.0000 1.0000
vn 1.0000 0.0000 0.0029
vn 0.0031 0.0000 -1.0000
vn -1.0000 0.0000 -0.0029
# 6 vertex normals

vt 0.9267 0.3083 0.0000
vt 0.8946 0.3091 0.0000
vt 0.8949 0.9729 0.0000
vt 0.9269 0.9722 0.0000
vt 0.9316 0.8479 0.0000
vt 0.9314 0.1841 0.0000
vt 0.9634 0.1833 0.0000
vt 0.9637 0.8472 0.0000
vt 0.7543 0.3655 0.0000
vt 0.7863 0.3655 0.0000
vt 0.7863 0.6632 0.0000
vt 0.7543 0.6632 0.0000
vt 0.7995 0.9918 0.0000
vt 0.7166 0.9918 0.0000
vt 0.7166 0.6941 0.0000
vt 0.7995 0.6941 0.0000
vt 0.7169 0.3655 0.0000
vt 0.7490 0.3655 0.0000
vt 0.7490 0.6632 0.0000
vt 0.7169 0.6632 0.0000
vt 0.8874 0.6941 0.0000
vt 0.8874 0.9918 0.0000
vt 0.8044 0.9918 0.0000
vt 0.8044 0.6941 0.0000
# 24 texture coords

g box2_001
usemtl wire_229166215
s off
f 1/1/1 2/2/1 3/3/1 4/4/1 
f 5/5/2 6/6/2 7/7/2 8/8/2 
f 2/9/3 1/10/3 7/11/3 6/12/3 
f 8/13/4 7/14/4 1/15/4 4/16/4 
f 4/17/5 3/18/5 5/19/5 8/20/5 
f 2/21/6 6/22/6 5/23/6 3/24/6 
# 6 polygons

#
# object box1_001
#

v  -1523.4181 0.0000 3782.8669
v  -1437.3824 0.0000 -3817.4851
v  1807.0375 0.0000 -3782.8669
v  1721.0018 0.0000 3817.4851
v  -1437.3824 499.6630 -3817.4851
v  -1523.4181 499.6630 3782.8669
v  1721.0018 499.6630 3817.4851
v  1807.0375 499.6630 -3782.8669
# 8 vertices

vn 0.0000 -1.0000 -0.0000
vn 0.0000 1.0000 -0.0000
vn 0.9999 0.0000 0.0107
vn -0.9999 0.0000 -0.0107
vn -0.0113 0.0000 0.9999
vn 0.0113 0.0000 -0.9999
# 6 vertex normals

vt 0.0009 0.1481 0.0000
vt 0.0055 0.9964 0.0000
vt 0.1813 0.9926 0.0000
vt 0.1767 0.1442 0.0000
vt 0.1840 0.9378 0.0000
vt 0.1794 0.0895 0.0000
vt 0.3552 0.0856 0.0000
vt 0.3598 0.9340 0.0000
vt 0.3643 0.9973 0.0000
vt 0.3643 0.9415 0.0000
vt 0.7885 0.9415 0.0000
vt 0.7885 0.9973 0.0000
vt 0.7885 0.8799 0.0000
vt 0.7885 0.9357 0.0000
vt 0.3643 0.9357 0.0000
vt 0.3643 0.8799 0.0000
vt 0.0039 0.5321 0.0000
vt 0.3555 0.5321 0.0000
vt 0.3555 0.9783 0.0000
vt 0.0039 0.9783 0.0000
vt 0.3604 0.5399 0.0000
vt 0.7120 0.5399 0.0000
vt 0.7120 0.9861 0.0000
vt 0.3604 0.9861 0.0000
# 24 texture coords

g box1_001
usemtl wire_028089177
s off
f 9/25/7 10/26/7 11/27/7 12/28/7 
f 13/29/8 14/30/8 15/31/8 16/32/8 
f 15/33/9 12/34/9 11/35/9 16/36/9 
f 9/37/10 14/38/10 13/39/10 10/40/10 
f 9/41/11 12/42/11 15/43/11 14/44/11 
f 11/45/12 10/46/12 13/47/12 16/48/12 
# 6 polygons

